<?xml version="1.0" encoding="utf-8"?>
<!-- Generator: Adobe Illustrator 16.0.0, SVG Export Plug-In . SVG Version: 6.00 Build 0)  -->
<!DOCTYPE svg PUBLIC "-//W3C//DTD SVG 1.1//EN" "http://www.w3.org/Graphics/SVG/1.1/DTD/svg11.dtd">
<svg version="1.1" id="Layer_1" xmlns="http://www.w3.org/2000/svg" xmlns:xlink="http://www.w3.org/1999/xlink" x="0px" y="0px"
	 width="14.124px" height="10.284px" viewBox="0 0 14.124 10.284" enable-background="new 0 0 14.124 10.284" xml:space="preserve">
<g>
	<path fill="#A4A9AD" d="M8.996,9.64V7.711H0.321C0.141,7.711,0,7.571,0,7.39V0.322c0-0.121,0.07-0.241,0.181-0.291
		C0.301-0.02,0.432-0.01,0.532,0.071L2.46,1.678c0.07,0.059,0.11,0.16,0.11,0.25v3.213h6.426V3.214c0-0.251,0.141-0.472,0.372-0.583
		c0.221-0.1,0.492-0.07,0.683,0.091l3.855,3.213c0.291,0.241,0.291,0.743,0,0.984l-3.855,3.213c-0.191,0.16-0.462,0.2-0.683,0.09
		C9.137,10.111,8.996,9.89,8.996,9.64z"/>
</g>
</svg>
