<?xml version="1.0" encoding="utf-8"?>
<!-- Generator: Adobe Illustrator 16.0.0, SVG Export Plug-In . SVG Version: 6.00 Build 0)  -->
<!DOCTYPE svg PUBLIC "-//W3C//DTD SVG 1.1//EN" "http://www.w3.org/Graphics/SVG/1.1/DTD/svg11.dtd">
<svg version="1.1" id="Layer_1" xmlns="http://www.w3.org/2000/svg" xmlns:xlink="http://www.w3.org/1999/xlink" x="0px" y="0px"
	 width="8.908px" height="8.623px" viewBox="0 0 8.908 8.623" enable-background="new 0 0 8.908 8.623" xml:space="preserve">
<g>
	<path fill="#535C63" d="M8.819,4.659L8.373,5.106C8.319,5.159,8.248,5.195,8.167,5.195c-0.071,0-0.152-0.036-0.205-0.089
		L4.454,1.598L0.946,5.106C0.893,5.159,0.812,5.195,0.741,5.195S0.589,5.159,0.536,5.106L0.089,4.659C0.036,4.606,0,4.525,0,4.454
		s0.036-0.152,0.089-0.205l4.16-4.16C4.302,0.036,4.383,0,4.454,0s0.152,0.036,0.205,0.089l4.16,4.16
		c0.053,0.053,0.089,0.134,0.089,0.205S8.873,4.606,8.819,4.659z M8.819,8.087L8.373,8.534C8.319,8.587,8.248,8.623,8.167,8.623
		c-0.071,0-0.152-0.036-0.205-0.089L4.454,5.025L0.946,8.534C0.893,8.587,0.812,8.623,0.741,8.623S0.589,8.587,0.536,8.534
		L0.089,8.087C0.036,8.034,0,7.953,0,7.882S0.036,7.73,0.089,7.677l4.16-4.16c0.053-0.053,0.134-0.089,0.205-0.089
		s0.152,0.036,0.205,0.089l4.16,4.16C8.873,7.73,8.908,7.811,8.908,7.882S8.873,8.034,8.819,8.087z"/>
</g>
</svg>
