<?xml version="1.0" encoding="utf-8"?>
<!-- Generator: Adobe Illustrator 16.0.0, SVG Export Plug-In . SVG Version: 6.00 Build 0)  -->
<!DOCTYPE svg PUBLIC "-//W3C//DTD SVG 1.1//EN" "http://www.w3.org/Graphics/SVG/1.1/DTD/svg11.dtd">
<svg version="1.1" id="Layer_1" xmlns="http://www.w3.org/2000/svg" xmlns:xlink="http://www.w3.org/1999/xlink" x="0px" y="0px"
	 width="8.908px" height="8.623px" viewBox="0 0 8.908 8.623" enable-background="new 0 0 8.908 8.623" xml:space="preserve">
<g>
	<path fill="#535C63" d="M8.819,0.946l-4.16,4.16C4.606,5.159,4.525,5.195,4.454,5.195S4.302,5.159,4.249,5.106l-4.16-4.16
		C0.036,0.893,0,0.812,0,0.741s0.036-0.152,0.089-0.205l0.447-0.447C0.589,0.036,0.66,0,0.741,0c0.071,0,0.152,0.036,0.205,0.089
		l3.508,3.508l3.508-3.508C8.016,0.036,8.096,0,8.167,0s0.152,0.036,0.205,0.089l0.447,0.447c0.053,0.053,0.089,0.134,0.089,0.205
		S8.873,0.893,8.819,0.946z M8.819,4.374l-4.16,4.16C4.606,8.587,4.525,8.623,4.454,8.623S4.302,8.587,4.249,8.534l-4.16-4.16
		C0.036,4.32,0,4.24,0,4.168s0.036-0.152,0.089-0.205l0.447-0.447C0.589,3.463,0.66,3.428,0.741,3.428
		c0.071,0,0.152,0.036,0.205,0.089l3.508,3.508l3.508-3.508c0.053-0.053,0.134-0.089,0.205-0.089s0.152,0.036,0.205,0.089
		l0.447,0.447c0.053,0.053,0.089,0.134,0.089,0.205S8.873,4.32,8.819,4.374z"/>
</g>
</svg>
