<?xml version="1.0" encoding="utf-8"?>
<!-- Generator: Adobe Illustrator 16.0.0, SVG Export Plug-In . SVG Version: 6.00 Build 0)  -->
<!DOCTYPE svg PUBLIC "-//W3C//DTD SVG 1.1//EN" "http://www.w3.org/Graphics/SVG/1.1/DTD/svg11.dtd">
<svg version="1.1" id="Layer_1" xmlns="http://www.w3.org/2000/svg" xmlns:xlink="http://www.w3.org/1999/xlink" x="0px" y="0px"
	 width="7.974px" height="8.578px" viewBox="0 0 7.974 8.578" enable-background="new 0 0 7.974 8.578" xml:space="preserve">
<g>
	<path fill="#F42534" d="M7.879,6.126L7.521,6.741C7.326,7.082,6.885,7.199,6.544,7.003L5.059,6.149v1.714
		c0,0.391-0.323,0.715-0.714,0.715H3.629c-0.391,0-0.714-0.324-0.714-0.715V6.149L1.429,7.003C1.088,7.199,0.646,7.082,0.451,6.741
		L0.094,6.126c-0.195-0.341-0.079-0.782,0.263-0.978L1.842,4.29l-1.485-0.86C0.016,3.233-0.101,2.792,0.094,2.452l0.357-0.614
		c0.195-0.341,0.637-0.458,0.978-0.263l1.486,0.854V0.715C2.915,0.324,3.238,0,3.629,0h0.715c0.391,0,0.714,0.324,0.714,0.715v1.714
		l1.486-0.854c0.341-0.195,0.782-0.078,0.977,0.263l0.357,0.614c0.195,0.341,0.078,0.782-0.263,0.978L6.131,4.29l1.485,0.859
		C7.957,5.345,8.074,5.786,7.879,6.126z"/>
</g>
</svg>
