<?xml version="1.0" encoding="utf-8"?>
<!-- Generator: Adobe Illustrator 16.0.0, SVG Export Plug-In . SVG Version: 6.00 Build 0)  -->
<!DOCTYPE svg PUBLIC "-//W3C//DTD SVG 1.1//EN" "http://www.w3.org/Graphics/SVG/1.1/DTD/svg11.dtd">
<svg version="1.1" id="Layer_1" xmlns="http://www.w3.org/2000/svg" xmlns:xlink="http://www.w3.org/1999/xlink" x="0px" y="0px"
	 width="13.836px" height="10.604px" viewBox="0 0 13.836 10.604" enable-background="new 0 0 13.836 10.604" xml:space="preserve">
<g>
	<path fill="#231F20" d="M13.586,2.678L7.123,9.141l-1.214,1.214c-0.161,0.161-0.384,0.25-0.607,0.25s-0.446-0.089-0.607-0.25
		L3.481,9.141L0.25,5.909C0.089,5.749,0,5.525,0,5.302s0.089-0.446,0.25-0.607l1.214-1.214c0.161-0.161,0.384-0.25,0.607-0.25
		s0.446,0.089,0.607,0.25l2.625,2.633l5.856-5.865C11.319,0.089,11.542,0,11.765,0s0.446,0.089,0.607,0.25l1.214,1.214
		c0.161,0.161,0.25,0.384,0.25,0.607S13.747,2.517,13.586,2.678z"/>
</g>
</svg>
