<?xml version="1.0" encoding="utf-8"?>
<!-- Generator: Adobe Illustrator 16.0.0, SVG Export Plug-In . SVG Version: 6.00 Build 0)  -->
<!DOCTYPE svg PUBLIC "-//W3C//DTD SVG 1.1//EN" "http://www.w3.org/Graphics/SVG/1.1/DTD/svg11.dtd">
<svg version="1.1" id="Layer_1" xmlns="http://www.w3.org/2000/svg" xmlns:xlink="http://www.w3.org/1999/xlink" x="0px" y="0px"
	 width="7.958px" height="7.958px" viewBox="0 0 7.958 7.958" enable-background="new 0 0 7.958 7.958" xml:space="preserve">
<g>
	<path fill="#A4A9AD" d="M7.771,6.859L6.859,7.771C6.739,7.891,6.571,7.958,6.404,7.958S6.069,7.891,5.949,7.771l-1.97-1.969
		L2.01,7.771C1.889,7.891,1.722,7.958,1.554,7.958S1.22,7.891,1.099,7.771L0.188,6.859C0.067,6.739,0,6.571,0,6.404
		s0.067-0.335,0.188-0.456l1.97-1.969L0.188,2.01C0.067,1.889,0,1.722,0,1.554s0.067-0.335,0.188-0.456l0.911-0.911
		C1.22,0.067,1.387,0,1.554,0S1.889,0.067,2.01,0.188l1.969,1.969l1.97-1.969C6.069,0.067,6.236,0,6.404,0s0.335,0.067,0.456,0.188
		l0.911,0.911c0.121,0.121,0.188,0.288,0.188,0.456S7.891,1.889,7.771,2.01L5.801,3.979l1.969,1.969
		c0.121,0.121,0.188,0.288,0.188,0.456S7.891,6.739,7.771,6.859z"/>
</g>
</svg>
