<?xml version="1.0" encoding="utf-8"?>
<!-- Generator: Adobe Illustrator 16.0.0, SVG Export Plug-In . SVG Version: 6.00 Build 0)  -->
<!DOCTYPE svg PUBLIC "-//W3C//DTD SVG 1.1//EN" "http://www.w3.org/Graphics/SVG/1.1/DTD/svg11.dtd">
<svg version="1.1" id="Layer_1" xmlns="http://www.w3.org/2000/svg" xmlns:xlink="http://www.w3.org/1999/xlink" x="0px" y="0px"
	 width="19.277px" height="15.422px" viewBox="0 0 19.277 15.422" enable-background="new 0 0 19.277 15.422" xml:space="preserve">
<g>
	<path fill="#535C63" d="M19.277,13.815c0,0.884-0.723,1.606-1.606,1.606H1.606C0.723,15.422,0,14.699,0,13.815V1.606
		C0,0.723,0.723,0,1.606,0h16.064c0.884,0,1.606,0.723,1.606,1.606V13.815z M1.606,1.285c-0.171,0-0.321,0.15-0.321,0.321v12.209
		c0,0.171,0.15,0.321,0.321,0.321h16.064c0.171,0,0.321-0.15,0.321-0.321V1.606c0-0.171-0.15-0.321-0.321-0.321H1.606z M4.498,6.426
		c-1.064,0-1.928-0.863-1.928-1.928S3.434,2.57,4.498,2.57s1.928,0.863,1.928,1.928S5.563,6.426,4.498,6.426z M16.707,12.852H2.57
		v-1.928l3.213-3.213L7.39,9.317l5.141-5.141l4.177,4.177V12.852z"/>
</g>
</svg>
