<?xml version="1.0" encoding="utf-8"?>
<!-- Generator: Adobe Illustrator 16.0.0, SVG Export Plug-In . SVG Version: 6.00 Build 0)  -->
<!DOCTYPE svg PUBLIC "-//W3C//DTD SVG 1.1//EN" "http://www.w3.org/Graphics/SVG/1.1/DTD/svg11.dtd">
<svg version="1.1" id="Layer_1" xmlns="http://www.w3.org/2000/svg" xmlns:xlink="http://www.w3.org/1999/xlink" x="0px" y="0px"
	 width="13.997px" height="11.426px" viewBox="0 0 13.997 11.426" enable-background="new 0 0 13.997 11.426" xml:space="preserve">
<g>
	<path fill="#A4A9AD" d="M5.427,11.426H2.571C1.151,11.426,0,10.274,0,8.855v-4.93V2.571c0-0.686,0.268-1.309,0.706-1.77
		C1.175,0.308,1.837,0,2.571,0h2.856c0.152,0,0.286,0.134,0.286,0.286c0,0.25,0.116,0.857-0.286,0.857H2.571
		c-0.786,0-1.428,0.643-1.428,1.428v6.284c0,0.786,0.643,1.428,1.428,1.428h0.786h1.785c0.223,0,0.571-0.044,0.571,0.286
		C5.713,10.819,5.829,11.426,5.427,11.426z M13.827,6.115L11.52,8.422l-2.549,2.549c-0.107,0.107-0.25,0.169-0.402,0.169
		c-0.313,0-0.571-0.259-0.571-0.571V7.998H3.999c-0.313,0-0.571-0.259-0.571-0.571V3.999c0-0.313,0.259-0.571,0.571-0.571h3.999
		V0.857c0-0.313,0.259-0.571,0.571-0.571c0.152,0,0.294,0.063,0.402,0.169l1.843,1.843l3.013,3.013
		c0.107,0.107,0.169,0.25,0.169,0.402S13.934,6.007,13.827,6.115z"/>
</g>
</svg>
