<?xml version="1.0" encoding="utf-8"?>
<!-- Generator: Adobe Illustrator 16.0.0, SVG Export Plug-In . SVG Version: 6.00 Build 0)  -->
<!DOCTYPE svg PUBLIC "-//W3C//DTD SVG 1.1//EN" "http://www.w3.org/Graphics/SVG/1.1/DTD/svg11.dtd">
<svg version="1.1" id="Layer_1" xmlns="http://www.w3.org/2000/svg" xmlns:xlink="http://www.w3.org/1999/xlink" x="0px" y="0px"
	 width="10.383px" height="7.958px" viewBox="0 0 10.383 7.958" enable-background="new 0 0 10.383 7.958" xml:space="preserve">
<g>
	<path fill="#22C326" d="M10.195,2.01l-4.85,4.85L4.435,7.771C4.314,7.891,4.146,7.958,3.979,7.958S3.644,7.891,3.523,7.771
		L2.612,6.859L0.188,4.435C0.067,4.314,0,4.146,0,3.979c0-0.168,0.067-0.335,0.188-0.456l0.911-0.911
		c0.121-0.121,0.288-0.188,0.456-0.188S1.89,2.492,2.01,2.612l1.969,1.976l4.395-4.401C8.494,0.067,8.661,0,8.829,0
		s0.335,0.067,0.456,0.188l0.911,0.911c0.121,0.121,0.188,0.288,0.188,0.456S10.316,1.889,10.195,2.01z"/>
</g>
</svg>
