<?xml version="1.0" encoding="utf-8"?>
<!-- Generator: Adobe Illustrator 16.0.0, SVG Export Plug-In . SVG Version: 6.00 Build 0)  -->
<!DOCTYPE svg PUBLIC "-//W3C//DTD SVG 1.1//EN" "http://www.w3.org/Graphics/SVG/1.1/DTD/svg11.dtd">
<svg version="1.1" id="Layer_1" xmlns="http://www.w3.org/2000/svg" xmlns:xlink="http://www.w3.org/1999/xlink" x="0px" y="0px"
	 width="15.422px" height="15.422px" viewBox="0 0 15.422 15.422" enable-background="new 0 0 15.422 15.422" xml:space="preserve">
<g>
	<path d="M15.422,8.846c0,0.15-0.121,0.331-0.281,0.361l-1.857,0.281c-0.11,0.321-0.231,0.622-0.392,0.914
		c0.341,0.492,0.703,0.934,1.074,1.385c0.061,0.07,0.101,0.161,0.101,0.251c0,0.091-0.03,0.161-0.09,0.231
		c-0.241,0.321-1.596,1.797-1.938,1.797c-0.09,0-0.181-0.04-0.261-0.09l-1.386-1.084c-0.291,0.151-0.603,0.281-0.914,0.382
		c-0.07,0.612-0.13,1.265-0.291,1.867c-0.041,0.161-0.181,0.281-0.362,0.281H6.597c-0.181,0-0.342-0.13-0.362-0.301l-0.281-1.847
		c-0.312-0.101-0.613-0.221-0.904-0.372l-1.416,1.074c-0.07,0.06-0.161,0.09-0.251,0.09c-0.091,0-0.181-0.04-0.251-0.11
		c-0.532-0.482-1.235-1.104-1.657-1.687c-0.05-0.07-0.07-0.15-0.07-0.231c0-0.09,0.03-0.161,0.08-0.23
		c0.341-0.462,0.713-0.904,1.054-1.376C2.37,10.11,2.229,9.779,2.128,9.438L0.291,9.167C0.121,9.137,0,8.976,0,8.805V6.576
		c0-0.15,0.121-0.331,0.271-0.361l1.868-0.281C2.239,5.612,2.37,5.312,2.53,5.01C2.189,4.528,1.827,4.076,1.456,3.625
		c-0.061-0.07-0.101-0.15-0.101-0.241c0-0.091,0.04-0.161,0.09-0.231c0.241-0.332,1.596-1.797,1.938-1.797
		c0.09,0,0.181,0.04,0.261,0.101L5.03,2.53c0.291-0.151,0.603-0.281,0.914-0.382c0.07-0.612,0.13-1.265,0.291-1.867
		C6.275,0.121,6.416,0,6.597,0h2.229c0.181,0,0.342,0.13,0.362,0.301l0.281,1.847c0.312,0.101,0.613,0.221,0.904,0.372l1.426-1.074
		c0.06-0.06,0.15-0.09,0.241-0.09c0.091,0,0.181,0.04,0.251,0.101c0.532,0.492,1.235,1.114,1.657,1.707
		c0.05,0.061,0.07,0.141,0.07,0.221c0,0.09-0.03,0.161-0.08,0.23c-0.341,0.462-0.713,0.904-1.054,1.376
		c0.17,0.321,0.311,0.652,0.412,0.984l1.837,0.281c0.17,0.03,0.291,0.191,0.291,0.362V8.846z M7.711,5.141
		c-1.416,0-2.57,1.155-2.57,2.57s1.155,2.57,2.57,2.57s2.57-1.155,2.57-2.57S9.126,5.141,7.711,5.141z"/>
</g>
</svg>
